<svg width="80" height="80" viewBox="0 0 80 80" fill="none" xmlns="http://www.w3.org/2000/svg">
<path opacity="0.3" d="M80 40C80 62.0914 62.0914 80 40 80C17.9086 80 0 62.0914 0 40C0 17.9086 17.9086 0 40 0C62.0914 0 80 17.9086 80 40ZM10.9071 40C10.9071 56.0675 23.9325 69.0929 40 69.0929C56.0675 69.0929 69.0929 56.0675 69.0929 40C69.0929 23.9325 56.0675 10.9071 40 10.9071C23.9325 10.9071 10.9071 23.9325 10.9071 40Z" fill="#2F2E30"/>
<circle cx="40" cy="40" r="29" fill="black"/>
<g filter="url(#filter0_d_120_1440)">
<path d="M39.9831 22.5875C41.0046 22.5875 42.0041 22.7367 42.7575 23.0182L51.0749 26.1353H51.0759C53.2954 26.9621 55.0505 29.5077 55.0505 31.8668V44.2496C55.0505 45.3368 54.7063 46.5895 54.1237 47.7486C53.5777 48.8349 52.8403 49.8025 52.0309 50.4557L51.8679 50.5826L44.7009 55.9322L44.695 55.9371C43.4123 56.9262 41.7237 57.4332 39.9997 57.4332C38.277 57.4331 36.5846 56.9264 35.2643 55.9478H35.2634L28.0993 50.5992C27.2266 49.9485 26.4253 48.9209 25.8425 47.7594C25.2596 46.5977 24.9167 45.3448 24.9167 44.2662V31.8668C24.9167 29.5076 26.6716 26.962 28.8913 26.1353H28.8923L37.2087 23.0182C37.9621 22.7366 38.9615 22.5875 39.9831 22.5875ZM40.0007 24.0855C39.2021 24.0877 38.3752 24.195 37.7419 24.4312L37.7409 24.4322L29.4245 27.5484H29.4235C28.596 27.86 27.8548 28.5225 27.3239 29.2906C26.7928 30.059 26.4333 30.9899 26.4333 31.8834V44.2662C26.4333 45.1607 26.7439 46.1894 27.2009 47.1012C27.6577 48.0127 28.2931 48.8727 29.0007 49.401L36.1677 54.7506C37.2295 55.5445 38.6281 55.9253 40.0016 55.9254C41.3755 55.9254 42.7779 55.5443 43.8474 54.7516L43.8493 54.7506L51.0153 49.401L51.0163 49.4C51.731 48.8639 52.3666 48.005 52.822 47.0943C53.2773 46.1837 53.5837 45.1597 53.5837 44.2662V31.8668C53.5837 30.9808 53.2233 30.054 52.6931 29.2867C52.1625 28.5192 51.422 27.854 50.5974 27.5338L50.5925 27.5318L42.2751 24.4146L42.2663 24.4117C41.6282 24.1865 40.8001 24.0834 40.0007 24.0855Z" fill="#FAFAFA" stroke="#FAFAFA"/>
<path d="M44.4039 34.77C44.692 34.4822 45.1755 34.482 45.4635 34.77C45.7514 35.058 45.7512 35.5415 45.4635 35.8296L38.2965 42.9966C38.1452 43.1478 37.9574 43.2163 37.7662 43.2163C37.5752 43.2162 37.3881 43.1477 37.2369 42.9966L34.5533 40.313C34.2654 40.0249 34.2653 39.5414 34.5533 39.2534C34.8413 38.9654 35.3248 38.9655 35.6129 39.2534L37.7662 41.4067L38.1207 41.0532L44.4039 34.77Z" fill="#FAFAFA" stroke="#FAFAFA"/>
</g>
<defs>
<filter id="filter0_d_120_1440" x="16" y="20" width="48" height="48" filterUnits="userSpaceOnUse" color-interpolation-filters="sRGB">
<feFlood flood-opacity="0" result="BackgroundImageFix"/>
<feColorMatrix in="SourceAlpha" type="matrix" values="0 0 0 0 0 0 0 0 0 0 0 0 0 0 0 0 0 0 127 0" result="hardAlpha"/>
<feOffset dy="4"/>
<feGaussianBlur stdDeviation="2"/>
<feComposite in2="hardAlpha" operator="out"/>
<feColorMatrix type="matrix" values="0 0 0 0 0 0 0 0 0 0 0 0 0 0 0 0 0 0 0.25 0"/>
<feBlend mode="normal" in2="BackgroundImageFix" result="effect1_dropShadow_120_1440"/>
<feBlend mode="normal" in="SourceGraphic" in2="effect1_dropShadow_120_1440" result="shape"/>
</filter>
</defs>
</svg>
